<mxfile host="65bd71144e">
    <diagram id="SkchxqJdkRNFkSz6fXIc" name="Página-1">
        <mxGraphModel dx="1002" dy="563" grid="1" gridSize="10" guides="1" tooltips="1" connect="1" arrows="1" fold="1" page="1" pageScale="1" pageWidth="1169" pageHeight="827" math="0" shadow="0">
            <root>
                <mxCell id="0"/>
                <mxCell id="1" parent="0"/>
                <mxCell id="8" style="edgeStyle=none;html=1;exitX=1;exitY=0;exitDx=0;exitDy=0;entryX=0;entryY=0.5;entryDx=0;entryDy=0;" parent="1" source="2" target="3" edge="1">
                    <mxGeometry relative="1" as="geometry"/>
                </mxCell>
                <mxCell id="9" value="Remoto '1'&lt;br&gt;&lt;span style=&quot;&quot;&gt;aberto '0'&lt;/span&gt;&lt;br style=&quot;background-color: rgb(42, 37, 47);&quot;&gt;&lt;span style=&quot;&quot;&gt;fechado '1'&lt;/span&gt;" style="edgeLabel;html=1;align=center;verticalAlign=middle;resizable=0;points=[];" parent="8" vertex="1" connectable="0">
                    <mxGeometry x="-0.2337" relative="1" as="geometry">
                        <mxPoint x="1" as="offset"/>
                    </mxGeometry>
                </mxCell>
                <mxCell id="2" value="Ligar = '0'&lt;br&gt;Direção = '1'" style="rounded=1;whiteSpace=wrap;html=1;" parent="1" vertex="1">
                    <mxGeometry x="250" y="124.25999999999999" width="120" height="130" as="geometry"/>
                </mxCell>
                <mxCell id="11" value="Remoto '1'&lt;br&gt;&lt;span style=&quot;&quot;&gt;aberto '0'&lt;/span&gt;&lt;br style=&quot;background-color: rgb(42, 37, 47);&quot;&gt;&lt;span style=&quot;&quot;&gt;fechado '0'&lt;/span&gt;" style="edgeStyle=none;html=1;entryX=0;entryY=0.5;entryDx=0;entryDy=0;exitX=1;exitY=0.5;exitDx=0;exitDy=0;" parent="1" source="3" target="10" edge="1">
                    <mxGeometry relative="1" as="geometry"/>
                </mxCell>
                <mxCell id="60" style="edgeStyle=none;html=1;entryX=0.5;entryY=0;entryDx=0;entryDy=0;" parent="1" source="3" target="45" edge="1">
                    <mxGeometry relative="1" as="geometry"/>
                </mxCell>
                <mxCell id="68" value="&lt;span style=&quot;&quot;&gt;remoto'0'&lt;br&gt;aberto '1'&lt;/span&gt;&lt;br style=&quot;background-color: rgb(42, 37, 47);&quot;&gt;&lt;span style=&quot;&quot;&gt;fechado '0'&lt;/span&gt;" style="edgeLabel;html=1;align=center;verticalAlign=middle;resizable=0;points=[];" vertex="1" connectable="0" parent="60">
                    <mxGeometry x="-0.2237" relative="1" as="geometry">
                        <mxPoint as="offset"/>
                    </mxGeometry>
                </mxCell>
                <mxCell id="3" value="Ligar = '1'&lt;br&gt;Direção = '1'" style="rounded=1;whiteSpace=wrap;html=1;" parent="1" vertex="1">
                    <mxGeometry x="560" y="100" width="120" height="60" as="geometry"/>
                </mxCell>
                <mxCell id="7" style="edgeStyle=none;html=1;entryX=0;entryY=0.5;entryDx=0;entryDy=0;" parent="1" source="6" target="2" edge="1">
                    <mxGeometry relative="1" as="geometry"/>
                </mxCell>
                <mxCell id="6" value="RST" style="text;html=1;strokeColor=none;fillColor=none;align=center;verticalAlign=middle;whiteSpace=wrap;rounded=0;" parent="1" vertex="1">
                    <mxGeometry x="70" y="140" width="60" height="30" as="geometry"/>
                </mxCell>
                <mxCell id="13" style="edgeStyle=none;html=1;entryX=0.5;entryY=0;entryDx=0;entryDy=0;" parent="1" target="12" edge="1">
                    <mxGeometry relative="1" as="geometry">
                        <mxPoint x="909.9999999999998" y="140" as="sourcePoint"/>
                        <mxPoint x="880" y="270" as="targetPoint"/>
                        <Array as="points">
                            <mxPoint x="910" y="180"/>
                        </Array>
                    </mxGeometry>
                </mxCell>
                <mxCell id="14" value="Remoto '1'&lt;br&gt;&lt;span style=&quot;&quot;&gt;aberto '0'&lt;/span&gt;&lt;br style=&quot;background-color: rgb(42, 37, 47);&quot;&gt;&lt;span style=&quot;&quot;&gt;fechado '0'&lt;/span&gt;" style="edgeLabel;html=1;align=center;verticalAlign=middle;resizable=0;points=[];" parent="13" vertex="1" connectable="0">
                    <mxGeometry x="-0.1562" y="-1" relative="1" as="geometry">
                        <mxPoint x="4" y="15" as="offset"/>
                    </mxGeometry>
                </mxCell>
                <mxCell id="72" style="edgeStyle=none;html=1;exitX=0.25;exitY=0;exitDx=0;exitDy=0;entryX=0.5;entryY=0;entryDx=0;entryDy=0;" edge="1" parent="1" source="10" target="2">
                    <mxGeometry relative="1" as="geometry">
                        <mxPoint x="840" y="30" as="targetPoint"/>
                        <Array as="points">
                            <mxPoint x="800" y="30"/>
                            <mxPoint x="380" y="30"/>
                        </Array>
                    </mxGeometry>
                </mxCell>
                <mxCell id="73" value="Contador '30'&lt;br&gt;aberto '0'&lt;br style=&quot;background-color: rgb(42, 37, 47);&quot;&gt;fechado '0'" style="edgeLabel;html=1;align=center;verticalAlign=middle;resizable=0;points=[];" vertex="1" connectable="0" parent="72">
                    <mxGeometry x="0.0873" y="-3" relative="1" as="geometry">
                        <mxPoint as="offset"/>
                    </mxGeometry>
                </mxCell>
                <mxCell id="10" value="Ligar = '0'&lt;br&gt;Direção = '0'" style="rounded=1;whiteSpace=wrap;html=1;" parent="1" vertex="1">
                    <mxGeometry x="860" y="90" width="120" height="60" as="geometry"/>
                </mxCell>
                <mxCell id="62" style="edgeStyle=none;html=1;entryX=0.5;entryY=1;entryDx=0;entryDy=0;" parent="1" source="12" target="2" edge="1">
                    <mxGeometry relative="1" as="geometry">
                        <Array as="points">
                            <mxPoint x="580" y="430"/>
                            <mxPoint x="310" y="420"/>
                        </Array>
                    </mxGeometry>
                </mxCell>
                <mxCell id="64" style="edgeStyle=none;html=1;entryX=1;entryY=1;entryDx=0;entryDy=0;" parent="1" source="12" target="63" edge="1">
                    <mxGeometry relative="1" as="geometry">
                        <Array as="points">
                            <mxPoint x="680" y="380"/>
                        </Array>
                    </mxGeometry>
                </mxCell>
                <mxCell id="65" value="Remoto '1'&lt;br&gt;&lt;span style=&quot;&quot;&gt;aberto '0'&lt;/span&gt;&lt;br style=&quot;background-color: rgb(42, 37, 47);&quot;&gt;&lt;span style=&quot;&quot;&gt;fechado '0'&lt;/span&gt;" style="edgeLabel;html=1;align=center;verticalAlign=middle;resizable=0;points=[];" parent="64" vertex="1" connectable="0">
                    <mxGeometry x="0.043" y="3" relative="1" as="geometry">
                        <mxPoint x="-1" as="offset"/>
                    </mxGeometry>
                </mxCell>
                <mxCell id="12" value="Ligar = '1'&lt;br&gt;Direção = '0'" style="rounded=1;whiteSpace=wrap;html=1;" parent="1" vertex="1">
                    <mxGeometry x="870" y="400" width="120" height="60" as="geometry"/>
                </mxCell>
                <mxCell id="15" value="&lt;br&gt;" style="edgeLabel;html=1;align=center;verticalAlign=middle;resizable=0;points=[];" parent="1" vertex="1" connectable="0">
                    <mxGeometry x="1099.3259881952258" y="189.25979824240096" as="geometry">
                        <mxPoint x="-1" y="-4" as="offset"/>
                    </mxGeometry>
                </mxCell>
                <mxCell id="34" value="" style="edgeStyle=none;html=1;" parent="1" source="32" target="33" edge="1">
                    <mxGeometry relative="1" as="geometry"/>
                </mxCell>
                <mxCell id="32" value="Ligar = '0'&lt;br&gt;Direção = '1'" style="rounded=1;whiteSpace=wrap;html=1;" parent="1" vertex="1">
                    <mxGeometry x="150" y="460" width="120" height="60" as="geometry"/>
                </mxCell>
                <mxCell id="33" value="case_a" style="whiteSpace=wrap;html=1;rounded=1;" parent="1" vertex="1">
                    <mxGeometry x="390" y="460" width="120" height="60" as="geometry"/>
                </mxCell>
                <mxCell id="35" value="" style="edgeStyle=none;html=1;" parent="1" source="36" target="37" edge="1">
                    <mxGeometry relative="1" as="geometry"/>
                </mxCell>
                <mxCell id="36" value="Ligar = '1'&lt;br&gt;Direção = '1'" style="rounded=1;whiteSpace=wrap;html=1;" parent="1" vertex="1">
                    <mxGeometry x="150" y="550" width="120" height="60" as="geometry"/>
                </mxCell>
                <mxCell id="37" value="case_b" style="whiteSpace=wrap;html=1;rounded=1;" parent="1" vertex="1">
                    <mxGeometry x="390" y="550" width="120" height="60" as="geometry"/>
                </mxCell>
                <mxCell id="38" value="" style="edgeStyle=none;html=1;" parent="1" source="39" target="40" edge="1">
                    <mxGeometry relative="1" as="geometry"/>
                </mxCell>
                <mxCell id="39" value="Ligar = '1'&lt;br&gt;Direção = '0'" style="rounded=1;whiteSpace=wrap;html=1;" parent="1" vertex="1">
                    <mxGeometry x="150" y="630" width="120" height="60" as="geometry"/>
                </mxCell>
                <mxCell id="40" value="case_c" style="whiteSpace=wrap;html=1;rounded=1;" parent="1" vertex="1">
                    <mxGeometry x="390" y="630" width="120" height="60" as="geometry"/>
                </mxCell>
                <mxCell id="41" value="" style="edgeStyle=none;html=1;" parent="1" source="42" target="43" edge="1">
                    <mxGeometry relative="1" as="geometry"/>
                </mxCell>
                <mxCell id="42" value="Ligar = '0'&lt;br&gt;Direção = '0'" style="rounded=1;whiteSpace=wrap;html=1;" parent="1" vertex="1">
                    <mxGeometry x="150" y="720" width="120" height="60" as="geometry"/>
                </mxCell>
                <mxCell id="43" value="case_d" style="whiteSpace=wrap;html=1;rounded=1;" parent="1" vertex="1">
                    <mxGeometry x="390" y="720" width="120" height="60" as="geometry"/>
                </mxCell>
                <mxCell id="46" style="edgeStyle=none;html=1;exitX=0.75;exitY=1;exitDx=0;exitDy=0;entryX=0;entryY=0.25;entryDx=0;entryDy=0;" parent="1" source="45" target="12" edge="1">
                    <mxGeometry relative="1" as="geometry">
                        <mxPoint x="480" y="170" as="targetPoint"/>
                        <Array as="points">
                            <mxPoint x="760" y="330"/>
                        </Array>
                    </mxGeometry>
                </mxCell>
                <mxCell id="47" value="Remoto&amp;nbsp; '1'&lt;br&gt;&lt;span style=&quot;&quot;&gt;aberto '0'&lt;/span&gt;&lt;br style=&quot;background-color: rgb(42, 37, 47);&quot;&gt;&lt;span style=&quot;&quot;&gt;fechado '0'&lt;/span&gt;" style="edgeLabel;html=1;align=center;verticalAlign=middle;resizable=0;points=[];" parent="46" vertex="1" connectable="0">
                    <mxGeometry x="-0.1495" y="-3" relative="1" as="geometry">
                        <mxPoint x="-5" y="-17" as="offset"/>
                    </mxGeometry>
                </mxCell>
                <mxCell id="48" style="edgeStyle=none;html=1;exitX=1;exitY=1;exitDx=0;exitDy=0;entryX=0.25;entryY=0;entryDx=0;entryDy=0;" parent="1" source="45" target="12" edge="1">
                    <mxGeometry relative="1" as="geometry"/>
                </mxCell>
                <mxCell id="50" value="Contador '30'&lt;br&gt;&lt;span style=&quot;&quot;&gt;aberto '0'&lt;/span&gt;&lt;br style=&quot;background-color: rgb(42, 37, 47);&quot;&gt;&lt;span style=&quot;&quot;&gt;fechado '0'&lt;/span&gt;" style="edgeLabel;html=1;align=center;verticalAlign=middle;resizable=0;points=[];" parent="48" vertex="1" connectable="0">
                    <mxGeometry x="-0.1167" y="-2" relative="1" as="geometry">
                        <mxPoint x="17" y="-14" as="offset"/>
                    </mxGeometry>
                </mxCell>
                <mxCell id="45" value="Ligar = '0'&lt;br&gt;Direção = '0'" style="rounded=1;whiteSpace=wrap;html=1;" parent="1" vertex="1">
                    <mxGeometry x="680" y="220" width="120" height="60" as="geometry"/>
                </mxCell>
                <mxCell id="56" value="Aberto" style="text;html=1;align=center;verticalAlign=middle;resizable=0;points=[];autosize=1;strokeColor=none;fillColor=none;" parent="1" vertex="1">
                    <mxGeometry x="780" y="200" width="60" height="30" as="geometry"/>
                </mxCell>
                <mxCell id="57" value="Pausado_pra_fechar" style="text;html=1;align=center;verticalAlign=middle;resizable=0;points=[];autosize=1;strokeColor=none;fillColor=none;" parent="1" vertex="1">
                    <mxGeometry x="835" y="45" width="130" height="30" as="geometry"/>
                </mxCell>
                <mxCell id="58" value="Abrindo" style="text;html=1;align=center;verticalAlign=middle;resizable=0;points=[];autosize=1;strokeColor=none;fillColor=none;" parent="1" vertex="1">
                    <mxGeometry x="590" y="45" width="60" height="30" as="geometry"/>
                </mxCell>
                <mxCell id="59" value="&lt;span style=&quot;color: rgb(240, 240, 240); font-family: Helvetica; font-size: 12px; font-style: normal; font-variant-ligatures: normal; font-variant-caps: normal; font-weight: 400; letter-spacing: normal; orphans: 2; text-align: center; text-indent: 0px; text-transform: none; widows: 2; word-spacing: 0px; -webkit-text-stroke-width: 0px; background-color: rgb(42, 37, 47); text-decoration-thickness: initial; text-decoration-style: initial; text-decoration-color: initial; float: none; display: inline !important;&quot;&gt;Fechando&lt;/span&gt;" style="text;whiteSpace=wrap;html=1;" parent="1" vertex="1">
                    <mxGeometry x="980" y="340" width="80" height="40" as="geometry"/>
                </mxCell>
                <mxCell id="67" value="remoto '1'&lt;br&gt;&lt;span style=&quot;&quot;&gt;aberto '0'&lt;/span&gt;&lt;br style=&quot;background-color: rgb(42, 37, 47);&quot;&gt;&lt;span style=&quot;&quot;&gt;fechado '0'&lt;/span&gt;" style="edgeStyle=none;html=1;entryX=0.25;entryY=1;entryDx=0;entryDy=0;" parent="1" source="63" target="3" edge="1">
                    <mxGeometry relative="1" as="geometry"/>
                </mxCell>
                <mxCell id="70" value="Contador '30'&lt;br&gt;aberto '0'&lt;br style=&quot;background-color: rgb(42, 37, 47);&quot;&gt;fechado '0'" style="edgeStyle=none;html=1;exitX=0;exitY=0.25;exitDx=0;exitDy=0;entryX=1;entryY=0.75;entryDx=0;entryDy=0;" edge="1" parent="1" source="63" target="2">
                    <mxGeometry x="-0.0608" y="32" relative="1" as="geometry">
                        <Array as="points">
                            <mxPoint x="420" y="250"/>
                        </Array>
                        <mxPoint as="offset"/>
                    </mxGeometry>
                </mxCell>
                <mxCell id="63" value="Ligar = '0'&lt;br&gt;Direção = '1'&lt;br&gt;" style="rounded=1;whiteSpace=wrap;html=1;" parent="1" vertex="1">
                    <mxGeometry x="470" y="254.26" width="120" height="60" as="geometry"/>
                </mxCell>
                <mxCell id="66" value="Pausado_pra_abrir" style="text;html=1;align=center;verticalAlign=middle;resizable=0;points=[];autosize=1;strokeColor=none;fillColor=none;" parent="1" vertex="1">
                    <mxGeometry x="440" y="340" width="130" height="30" as="geometry"/>
                </mxCell>
            </root>
        </mxGraphModel>
    </diagram>
</mxfile>